<svg width="96px" height="38px" viewBox="0 0 96 38" version="1.1" xmlns="http://www.w3.org/2000/svg" xmlns:xlink="http://www.w3.org/1999/xlink">
    <title>LogoEnjoy_Blanc Copy@1x</title>
    <defs>
        <polygon id="path-1" points="0 0.255691489 19.4811982 0.255691489 19.4811982 21.4499894 0 21.4499894"></polygon>
        <polygon id="path-3" points="0.144128081 0.285929787 17.5465172 0.285929787 17.5465172 31.3921638 0.144128081 31.3921638"></polygon>
        <polygon id="path-5" points="0.0443935417 0.294904255 6.58710809 0.294904255 6.58710809 6.87234043 0.0443935417 6.87234043"></polygon>
        <polygon id="path-7" points="0 37.6944638 95.2251532 37.6944638 95.2251532 8.08510638e-05 0 8.08510638e-05"></polygon>
    </defs>
    <g id="Site-Corpo" stroke="none" stroke-width="1" fill="none" fill-rule="evenodd">
        <g id="Mobile---Tranche-partenaires---Filtres" transform="translate(-140.000000, -91.000000)">
            <g id="Group-31" transform="translate(140.000000, 91.000000)">
                <g id="Group-3" transform="translate(0.000000, 4.545528)">
                    <mask id="mask-2" fill="white">
                        <use xlink:href="#path-1"></use>
                    </mask>
                    <g id="Clip-2"></g>
                    <path d="M5.62019018,17.0706915 C6.87351284,18.208266 8.51361875,18.778266 10.5405079,18.778266 C12.7271817,18.778266 14.5934813,18.0077553 16.1406144,16.4679468 C16.3406469,16.2670319 16.5938068,15.9796064 16.900899,15.6044574 L19.4811982,16.5281809 C18.9209461,17.3189043 18.4339453,17.9212447 18.0210008,18.3360106 C15.9538637,20.4126702 13.4605002,21.4499894 10.5405079,21.4499894 C7.63339504,21.4499894 5.15049605,20.4155 3.08979855,18.346117 C1.02990602,16.2775426 -4.02479979e-05,13.7760106 -4.02479979e-05,10.842734 C-4.02479979e-05,7.92360638 1.02990602,5.42894681 3.08979855,3.35956383 C5.15049605,1.29018085 7.63339504,0.255691489 10.5405079,0.255691489 C13.0338714,0.255691489 15.2205451,1.00598936 17.1009316,2.5057766 C17.4076213,2.76045745 17.7139086,3.04181915 18.0210008,3.3498617 C18.127658,3.47032979 18.3276906,3.69105319 18.620696,4.01243617 L17.0808076,5.55952128 L5.62019018,17.0706915 Z M14.8804495,4.17332979 C13.7869114,3.32924468 12.3403984,2.90760638 10.5405079,2.90760638 C8.36711604,2.90760638 6.5064511,3.68135106 4.96012302,5.22803191 C3.41298998,6.77471277 2.63982594,8.64681915 2.63982594,10.842734 C2.63982594,12.6509681 3.06001503,14.104266 3.89999075,15.2022234 L14.8804495,4.17332979 Z" id="Fill-1" fill="#FEFEFE" mask="url(#mask-2)"></path>
                </g>
                <path d="M26.8213061,11.0290149 L26.8213061,25.4730574 L24.2812549,25.4730574 L24.2812549,6.44839787 L26.8213061,6.44839787 L26.8213061,6.99131277 C27.9144417,5.89335532 29.5215443,5.34397234 31.6414063,5.34397234 C33.8948917,5.34397234 35.7314079,6.06031277 37.1521622,7.49339787 C38.5717091,8.92648298 39.3022102,10.7209723 39.3420557,12.8772702 L39.3420557,25.4730574 L36.8217261,25.4730574 L36.8217261,13.0377596 C36.8217261,11.6184191 36.3081617,10.4060574 35.2818377,9.40188723 C34.2547088,8.39731277 33.0416342,7.89522766 31.6414063,7.89522766 C30.2415809,7.89522766 29.0277013,8.39084468 28.0013774,9.38167447 C27.4415277,9.94399362 27.0483048,10.4933766 26.8213061,11.0290149" id="Fill-4" fill="#FEFEFE"></path>
                <path d="M43.3222205,27.1810362 C44.8021394,27.0059936 45.5423001,26.3038021 45.5423001,25.0716319 L45.5423001,6.44839787 L48.0823512,6.44839787 L48.0823512,25.0312064 C48.0823512,27.8973766 46.4957751,29.463866 43.3222205,29.7326957 L43.3222205,27.1810362 Z M48.3025078,0.612568085 C48.7158547,1.02167447 48.9223269,1.51324894 48.9223269,2.08931277 C48.9223269,2.67912128 48.7158547,3.17756809 48.3025078,3.58627021 C47.8891608,3.99456809 47.3957204,4.19831277 46.8225889,4.19831277 C46.2490549,4.19831277 45.7556145,3.99456809 45.3422675,3.58627021 C44.9293231,3.17756809 44.7224484,2.67912128 44.7224484,2.08931277 C44.7224484,1.51324894 44.9293231,1.02167447 45.3422675,0.612568085 C45.7556145,0.204674468 46.2490549,0.000121276596 46.8225889,0.000121276596 C47.3957204,0.000121276596 47.8891608,0.204674468 48.3025078,0.612568085 L48.3025078,0.612568085 Z" id="Fill-6" fill="#FEFEFE"></path>
                <path d="M64.2633343,4.80134043 C67.1837291,4.80134043 69.6702504,5.83582979 71.7241057,7.90521277 C73.7771561,9.97459574 74.804285,12.4753191 74.804285,15.4085957 C74.804285,18.3285319 73.7771561,20.8231915 71.7241057,22.891766 C69.6702504,24.9615532 67.1837291,25.9956383 64.2633343,25.9956383 C61.3566239,25.9956383 58.8737249,24.9615532 56.812625,22.891766 C54.7531349,20.8231915 53.7231886,18.3285319 53.7231886,15.4085957 C53.7231886,12.4753191 54.7531349,9.97459574 56.812625,7.90521277 C58.8737249,5.83582979 61.3566239,4.80134043 64.2633343,4.80134043 M58.6632279,9.78338298 C57.1160949,11.3373404 56.3429308,13.2122766 56.3429308,15.4085957 C56.3429308,17.6053191 57.1160949,19.4737872 58.6632279,21.0135957 C60.2103609,22.5534043 62.0766606,23.3235106 64.2633343,23.3235106 C66.450813,23.3235106 68.3167102,22.5534043 69.8634408,21.0135957 C71.4109763,19.4737872 72.1837378,17.6053191 72.1837378,15.4085957 C72.1837378,13.2122766 71.4109763,11.3373404 69.8634408,9.78338298 C68.3167102,8.23023404 66.450813,7.45325532 64.2633343,7.45325532 C62.0766606,7.45325532 60.2103609,8.23023404 58.6632279,9.78338298" id="Fill-8" fill="#FEFEFE"></path>
                <g id="Group-12" transform="translate(77.678636, 6.162549)">
                    <mask id="mask-4" fill="white">
                        <use xlink:href="#path-3"></use>
                    </mask>
                    <g id="Clip-11"></g>
                    <polygon id="Fill-10" fill="#FEFEFE" mask="url(#mask-4)" points="2.72281731 31.3921638 0.144128081 31.3921638 7.68579793 15.5142277 0.425864066 0.285929787 3.28548432 0.285929787 9.00593227 12.6812064 14.7263802 0.285929787 17.5465574 0.285929787"></polygon>
                </g>
                <path d="M1.67141886,29.8173872 C1.79980997,29.9435149 1.86460925,30.0963234 1.86460925,30.2758128 C1.86460925,30.4581319 1.79980997,30.6129617 1.67141886,30.7398979 C1.54343022,30.8664298 1.39008535,30.9298979 1.2121892,30.9298979 C1.03429305,30.9298979 0.880948179,30.8664298 0.752959545,30.7398979 C0.624568432,30.6129617 0.560976595,30.4581319 0.560976595,30.2758128 C0.560976595,30.0963234 0.624568432,29.9435149 0.752959545,29.8173872 C0.880948179,29.6900468 1.03429305,29.6265787 1.2121892,29.6265787 C1.39008535,29.6265787 1.54343022,29.6900468 1.67141886,29.8173872 L1.67141886,29.8173872 Z M0.814941462,37.5326 L1.6042047,37.5326 L1.6042047,31.6280468 L0.814941462,31.6280468 L0.814941462,37.5326 Z" id="Fill-13" fill="#FEFEFE"></path>
                <path d="M6.12699297,31.6282489 L6.91464629,31.6282489 L6.91464629,31.5720574 C7.10501932,31.3848872 7.44310251,31.2919085 7.92688344,31.2919085 C8.42354374,31.2919085 8.84695267,31.4681638 9.19872018,31.821483 L9.32992865,31.9524617 L9.46636936,31.821483 C9.81813686,31.4681638 10.2415458,31.2919085 10.7382061,31.2919085 C11.2388912,31.2919085 11.66391,31.4681638 12.0116528,31.821483 C12.3465161,32.1582277 12.5215949,32.5649085 12.538499,33.0435468 L12.538499,37.5323979 L11.7508457,37.5323979 L11.7508457,32.9129723 C11.7423936,32.7423766 11.644591,32.5649085 11.4582428,32.3825894 C11.2598201,32.1832915 11.0195396,32.0834404 10.7382061,32.0834404 C10.4608974,32.0834404 10.2226292,32.1832915 10.0217917,32.3825894 C9.82095422,32.5818872 9.72033423,32.8313128 9.72033423,33.130866 L9.72033423,37.5323979 L8.93831563,37.5323979 L8.93831563,32.9129723 L8.93268091,32.9129723 C8.92463131,32.7423766 8.82924355,32.5649085 8.6473226,32.3825894 C8.44407021,32.1832915 8.20419215,32.0834404 7.92688344,32.0834404 C7.64554994,32.0834404 7.40687931,32.1832915 7.21248148,32.3825894 C7.03458533,32.5527809 6.93557525,32.7609723 6.91464629,33.0059511 L6.91464629,37.5323979 L6.12699297,37.5323979 L6.12699297,31.6282489 Z" id="Fill-15" fill="#FEFEFE"></path>
                <path d="M16.9560388,31.6282489 L17.7440946,31.6282489 L17.7440946,31.5720574 C17.9348701,31.3848872 18.2721483,31.2919085 18.7559293,31.2919085 C19.2525896,31.2919085 19.6768035,31.4681638 20.028571,31.821483 L20.1589745,31.9524617 L20.2954152,31.821483 C20.6471827,31.4681638 21.0713966,31.2919085 21.5680569,31.2919085 C22.068742,31.2919085 22.4929559,31.4681638 22.8406986,31.821483 C23.1755619,32.1582277 23.3514457,32.5649085 23.3679474,33.0435468 L23.3679474,37.5323979 L22.5798916,37.5323979 L22.5798916,32.9129723 C22.5714395,32.7423766 22.4744418,32.5649085 22.2880936,32.3825894 C22.0896709,32.1832915 21.8493904,32.0834404 21.5680569,32.0834404 C21.2907482,32.0834404 21.0520776,32.1832915 20.8508376,32.3825894 C20.650805,32.5818872 20.5497825,32.8313128 20.5497825,33.130866 L20.5497825,37.5323979 L19.7677639,37.5323979 L19.7677639,32.9129723 L19.7617267,32.9129723 C19.7532747,32.7423766 19.6582894,32.5649085 19.4763684,32.3825894 C19.273116,32.1832915 19.033238,32.0834404 18.7559293,32.0834404 C18.4745958,32.0834404 18.2367301,32.1832915 18.0423323,32.3825894 C17.8644361,32.5527809 17.7650236,32.7609723 17.7440946,33.0059511 L17.7440946,37.5323979 L16.9560388,37.5323979 L16.9560388,31.6282489 Z" id="Fill-17" fill="#FEFEFE"></path>
                <g id="Group-21" transform="translate(27.368639, 30.822123)">
                    <mask id="mask-6" fill="white">
                        <use xlink:href="#path-5"></use>
                    </mask>
                    <g id="Clip-20"></g>
                    <path d="M3.31575081,0.294904255 C4.22213573,0.294904255 4.99368985,0.616287234 5.63121813,1.25824468 C6.26834394,1.90101064 6.58710809,2.6767766 6.58710809,3.58715957 C6.58710809,4.49309574 6.26834394,5.26724468 5.63121813,5.90920213 C4.99368985,6.55196809 4.22213573,6.87254255 3.31575081,6.87254255 C2.4133907,6.87254255 1.64264154,6.55196809 1.00390581,5.90920213 C0.363560165,5.26724468 0.0443935417,4.49309574 0.0443935417,3.58715957 C0.0443935417,2.6767766 0.363560165,1.90101064 1.00390581,1.25824468 C1.64264154,0.616287234 2.4133907,0.294904255 3.31575081,0.294904255 M1.57743978,1.8407766 C1.09768365,2.32345745 0.85780558,2.90518085 0.85780558,3.58715957 C0.85780558,4.26832979 1.09768365,4.84884043 1.57743978,5.32626596 C2.0575984,5.80409574 2.63716957,6.04341489 3.31575081,6.04341489 C3.99433206,6.04341489 4.57350075,5.80409574 5.05365936,5.32626596 C5.53381798,4.84884043 5.77369605,4.26832979 5.77369605,3.58715957 C5.77369605,2.90518085 5.53381798,2.32345745 5.05365936,1.8407766 C4.57350075,1.35890426 3.99433206,1.11756383 3.31575081,1.11756383 C2.63716957,1.11756383 2.0575984,1.35890426 1.57743978,1.8407766" id="Fill-19" fill="#FEFEFE" mask="url(#mask-6)"></path>
                </g>
                <path d="M38.0005497,28.0807468 L38.789008,28.0807468 L38.789008,32.1330021 C39.4881157,31.4558745 40.2890509,31.1171085 41.1910085,31.1171085 C42.0973934,31.1171085 42.8689476,31.4384915 43.5064758,32.0804489 C44.1436017,32.7228106 44.4623658,33.4985766 44.4623658,34.4089596 C44.4623658,35.3153 44.1436017,36.0894489 43.5064758,36.7310021 C42.8689476,37.3737681 42.0973934,37.6943426 41.1910085,37.6943426 C40.2890509,37.6943426 39.4881157,37.3535553 38.789008,36.6719809 L38.789008,37.5326404 L38.0005497,37.5326404 L38.0005497,28.0807468 Z M38.789008,33.8789809 L38.789008,34.9324702 C38.8799685,35.3856404 39.1013325,35.7907043 39.4531,36.1488745 C39.9332586,36.6263 40.5124273,36.8648106 41.1910085,36.8648106 C41.8695898,36.8648106 42.4491609,36.6263 42.9293196,36.1488745 C43.4090757,35.6702362 43.6493562,35.090534 43.6493562,34.4089596 C43.6493562,33.7273851 43.4090757,33.1452574 42.9293196,32.6633851 C42.4491609,32.1811085 41.8695898,31.9401723 41.1910085,31.9401723 C40.5124273,31.9401723 39.9332586,32.1811085 39.4531,32.6633851 C39.1013325,33.0167043 38.8799685,33.4217681 38.789008,33.8789809 L38.789008,33.8789809 Z" id="Fill-22" fill="#FEFEFE"></path>
                <path d="M49.6801162,29.8173872 C49.8077024,29.9435149 49.8729042,30.0963234 49.8729042,30.2758128 C49.8729042,30.4581319 49.8077024,30.6129617 49.6801162,30.7398979 C49.5517251,30.8664298 49.3983803,30.9298979 49.2200816,30.9298979 C49.042588,30.9298979 48.8896456,30.8664298 48.7612545,30.7398979 C48.6324609,30.6129617 48.5692715,30.4581319 48.5692715,30.2758128 C48.5692715,30.0963234 48.6324609,29.9435149 48.7612545,29.8173872 C48.8896456,29.6900468 49.042588,29.6265787 49.2200816,29.6265787 C49.3983803,29.6265787 49.5517251,29.6900468 49.6801162,29.8173872 L49.6801162,29.8173872 Z M48.8232364,37.5326 L49.6124996,37.5326 L49.6124996,31.6280468 L48.8232364,31.6280468 L48.8232364,37.5326 Z" id="Fill-24" fill="#FEFEFE"></path>
                <mask id="mask-8" fill="white">
                    <use xlink:href="#path-7"></use>
                </mask>
                <g id="Clip-27"></g>
                <polygon id="Fill-26" fill="#FEFEFE" mask="url(#mask-8)" points="54.1351671 37.5327617 54.922418 37.5327617 54.922418 28.0804638 54.1351671 28.0804638"></polygon>
                <path d="M60.2970954,29.8173872 C60.425084,29.9435149 60.4890783,30.0963234 60.4890783,30.2758128 C60.4890783,30.4581319 60.425084,30.6129617 60.2970954,30.7398979 C60.1691067,30.8664298 60.0153594,30.9298979 59.8374632,30.9298979 C59.6595671,30.9298979 59.5066247,30.8664298 59.3782336,30.7398979 C59.2498425,30.6129617 59.1850432,30.4581319 59.1850432,30.2758128 C59.1850432,30.0963234 59.2498425,29.9435149 59.3782336,29.8173872 C59.5066247,29.6900468 59.6595671,29.6265787 59.8374632,29.6265787 C60.0153594,29.6265787 60.1691067,29.6900468 60.2970954,29.8173872 L60.2970954,29.8173872 Z M59.4402155,37.5326 L60.2278688,37.5326 L60.2278688,31.6280468 L59.4402155,31.6280468 L59.4402155,37.5326 Z" id="Fill-28" fill="#FEFEFE" mask="url(#mask-8)"></path>
                <path d="M66.1228723,36.3356404 C66.5120705,36.6889596 67.0208052,36.8652149 67.6498814,36.8652149 C68.3284626,36.8652149 68.9080338,36.6263 69.3877899,36.1484702 C69.4505768,36.0858106 69.5286579,35.9968745 69.6236432,35.8800447 L70.4245784,36.167066 C70.250707,36.4120447 70.099777,36.5992149 69.9717884,36.7281723 C69.3302353,37.3725553 68.5562663,37.6943426 67.6498814,37.6943426 C66.7475213,37.6943426 65.9779795,37.3741723 65.3376339,36.7314064 C64.6984957,36.0894489 64.3785241,35.3128745 64.3785241,34.4028957 C64.3785241,33.4965553 64.6984957,32.7228106 65.3376339,32.0800447 C65.9779795,31.4380872 66.7475213,31.1167043 67.6498814,31.1167043 C68.4238504,31.1167043 69.1020291,31.3495553 69.6860276,31.8152574 C69.7810129,31.8940872 69.8759981,31.9814064 69.9717884,32.0772149 C70.0051942,32.1144064 70.0663712,32.183534 70.1577341,32.2829809 L69.6799904,32.7628319 L66.1228723,36.3356404 Z M68.9969819,32.3327043 C68.6572888,32.0711511 68.2089261,31.9397681 67.6498814,31.9397681 C66.9753249,31.9397681 66.3985711,32.1798957 65.91801,32.6601511 C65.4378514,33.1395979 65.1979733,33.720917 65.1979733,34.4028957 C65.1979733,34.9635979 65.3283769,35.4147468 65.5887814,35.755534 L68.9969819,32.3327043 Z" id="Fill-29" fill="#FEFEFE" mask="url(#mask-8)"></path>
                <path d="M74.4699851,31.6282489 L75.2580409,31.6282489 L75.2580409,32.3514617 C75.82916,31.8032915 76.4167808,31.5142489 77.0209032,31.4851426 L77.0209032,32.3263979 C76.6437795,32.3433766 76.2968417,32.5135681 75.9784801,32.8373766 C75.5144207,33.2949936 75.2745426,33.8455894 75.2580409,34.4899723 L75.2580409,37.5323979 L74.4699851,37.5323979 L74.4699851,31.6282489 Z" id="Fill-30" fill="#FEFEFE" mask="url(#mask-8)"></path>
            </g>
        </g>
    </g>
</svg>