<svg width="103px" height="41px" viewBox="0 0 103 41" version="1.1" xmlns="http://www.w3.org/2000/svg" xmlns:xlink="http://www.w3.org/1999/xlink">
    <title>LogoEnjoy_Blanc@2x</title>
    <defs>
        <polygon id="path-1" points="0 0.27587766 21.0191875 0.27587766 21.0191875 23.1434096 0 23.1434096"></polygon>
        <polygon id="path-3" points="0.155506613 0.308503191 18.9317685 0.308503191 18.9317685 33.8704926 0.155506613 33.8704926"></polygon>
        <polygon id="path-5" points="0.047898295 0.31818617 7.10714293 0.31818617 7.10714293 7.41489362 0.047898295 7.41489362"></polygon>
        <polygon id="path-7" points="0 40.6703426 102.742928 40.6703426 102.742928 8.72340426e-05 0 8.72340426e-05"></polygon>
    </defs>
    <g id="Site-Corpo" stroke="none" stroke-width="1" fill="none" fill-rule="evenodd">
        <g id="Page-CMS" transform="translate(-629.000000, -18.000000)">
            <g id="Group-31" transform="translate(629.040816, 18.000000)">
                <g id="Group-3" transform="translate(0.000000, 4.904385)">
                    <mask id="mask-2" fill="white">
                        <use xlink:href="#path-1"></use>
                    </mask>
                    <g id="Clip-2"></g>
                    <path d="M6.06388941,18.4183777 C7.41615859,19.6457606 9.18574655,20.2607606 11.3726533,20.2607606 C13.7319592,20.2607606 15.7455983,19.4294202 17.4148734,17.7680479 C17.630698,17.5512713 17.9038442,17.2411543 18.2351805,16.8363883 L21.0191875,17.8330372 C20.414705,18.6861862 19.8892568,19.3360798 19.4437114,19.7835904 C17.2133792,22.0241968 14.5231712,23.1434096 11.3726533,23.1434096 C8.23603149,23.1434096 5.55711416,22.02725 3.33373002,19.7944947 C1.11121439,17.5626117 -4.34254715e-05,14.8635904 -4.34254715e-05,11.6987394 C-4.34254715e-05,8.54915426 1.11121439,5.85754787 3.33373002,3.62479255 C5.55711416,1.39203723 8.23603149,0.27587766 11.3726533,0.27587766 C14.0628613,0.27587766 16.4221671,1.08540957 18.4510051,2.70360106 C18.7819072,2.9783883 19.1123751,3.28196277 19.4437114,3.61432447 C19.5587889,3.74430319 19.7746135,3.98245213 20.0907509,4.32920745 L18.4292924,5.99843085 L6.06388941,18.4183777 Z M16.0552219,4.50280319 C14.8753518,3.59207979 13.3146404,3.13715426 11.3726533,3.13715426 C9.02767784,3.13715426 7.02011829,3.97198404 5.35171168,5.64077128 C3.68243655,7.30955851 2.84823325,9.32946277 2.84823325,11.6987394 C2.84823325,13.6497287 3.30159517,15.2177606 4.20788476,16.4023989 L16.0552219,4.50280319 Z" id="Fill-1" fill="#E51753" mask="url(#mask-2)"></path>
                </g>
                <path d="M28.9387776,11.8997266 L28.9387776,27.4840883 L26.1981961,27.4840883 L26.1981961,6.95748191 L28.9387776,6.95748191 L28.9387776,7.54325851 C30.1182134,6.35862021 31.8521925,5.76586489 34.1394121,5.76586489 C36.5708042,5.76586489 38.5523085,6.53875851 40.0852276,8.08498191 C41.616844,9.63120532 42.4050163,11.5673649 42.4480075,13.8938968 L42.4480075,27.4840883 L39.7287045,27.4840883 L39.7287045,14.0670564 C39.7287045,12.5356628 39.1745955,11.2275883 38.067246,10.1441415 C36.9590279,9.06025851 35.6501842,8.51853511 34.1394121,8.51853511 C32.6290742,8.51853511 31.3193619,9.05327979 30.2120124,10.122333 C29.6079641,10.7290457 29.1836973,11.3218011 28.9387776,11.8997266" id="Fill-4" fill="#E51753"></path>
                <path d="M46.7423958,29.3269074 C48.3391504,29.1380457 49.1377448,28.3804181 49.1377448,27.0509713 L49.1377448,6.95748191 L51.8783263,6.95748191 L51.8783263,27.0073543 C51.8783263,30.0998011 50.1664942,31.7899606 46.7423958,32.0800138 L46.7423958,29.3269074 Z M52.1158637,0.660928723 C52.5618432,1.10233298 52.7846159,1.63271596 52.7846159,2.25425851 C52.7846159,2.89063085 52.5618432,3.42842872 52.1158637,3.86939681 C51.6698841,4.30992872 51.1374878,4.52975851 50.5191091,4.52975851 C49.9002961,4.52975851 49.3678998,4.30992872 48.9219202,3.86939681 C48.4763749,3.42842872 48.253168,2.89063085 48.253168,2.25425851 C48.253168,1.63271596 48.4763749,1.10233298 48.9219202,0.660928723 C49.3678998,0.220832979 49.9002961,0.000130851064 50.5191091,0.000130851064 C51.1374878,0.000130851064 51.6698841,0.220832979 52.1158637,0.660928723 L52.1158637,0.660928723 Z" id="Fill-6" fill="#E51753"></path>
                <path d="M69.3367555,5.18039362 C72.4877077,5.18039362 75.1705333,6.29655319 77.3865351,8.52930851 C79.6016684,10.7620638 80.7098864,13.4602128 80.7098864,16.6250638 C80.7098864,19.7755213 79.6016684,22.4671277 77.3865351,24.6990106 C75.1705333,26.9322021 72.4877077,28.0479255 69.3367555,28.0479255 C66.2005679,28.0479255 63.5216506,26.9322021 61.2978322,24.6990106 C59.0757508,22.4671277 57.964493,19.7755213 57.964493,16.6250638 C57.964493,13.4602128 59.0757508,10.7620638 61.2978322,8.52930851 C63.5216506,6.29655319 66.2005679,5.18039362 69.3367555,5.18039362 M63.2945354,10.5557553 C61.6252602,12.2323936 60.7910569,14.2553511 60.7910569,16.6250638 C60.7910569,18.9952128 61.6252602,21.0111915 63.2945354,22.6725638 C64.9638105,24.3339362 66.9774496,25.1648404 69.3367555,25.1648404 C71.6969298,25.1648404 73.7101347,24.3339362 75.3789756,22.6725638 C77.0486849,21.0111915 77.882454,18.9952128 77.882454,16.6250638 C77.882454,14.2553511 77.0486849,12.2323936 75.3789756,10.5557553 C73.7101347,8.87998936 71.6969298,8.04167021 69.3367555,8.04167021 C66.9774496,8.04167021 64.9638105,8.87998936 63.2945354,10.5557553" id="Fill-8" fill="#E51753"></path>
                <g id="Group-12" transform="translate(83.811160, 6.649066)">
                    <mask id="mask-4" fill="white">
                        <use xlink:href="#path-3"></use>
                    </mask>
                    <g id="Clip-11"></g>
                    <polygon id="Fill-10" fill="#E51753" mask="url(#mask-4)" points="2.93777657 33.8704926 0.155506613 33.8704926 8.29257145 16.7390351 0.459484913 0.308503191 3.54486466 0.308503191 9.71692692 13.6823543 15.8889892 0.308503191 18.931812 0.308503191"></polygon>
                </g>
                <path d="M1.80337298,32.1713915 C1.94190023,32.3074766 2.01181524,32.4723489 2.01181524,32.6660085 C2.01181524,32.8627213 1.94190023,33.0297745 1.80337298,33.1667319 C1.66527998,33.3032532 1.49982893,33.3717319 1.30788835,33.3717319 C1.11594777,33.3717319 0.950496719,33.3032532 0.81240372,33.1667319 C0.673876466,33.0297745 0.605264221,32.8627213 0.605264221,32.6660085 C0.605264221,32.4723489 0.673876466,32.3074766 0.81240372,32.1713915 C0.950496719,32.0339979 1.11594777,31.9655191 1.30788835,31.9655191 C1.49982893,31.9655191 1.66527998,32.0339979 1.80337298,32.1713915 L1.80337298,32.1713915 Z M0.879278946,40.4957 L1.73085244,40.4957 L1.73085244,34.1249979 L0.879278946,34.1249979 L0.879278946,40.4957 Z" id="Fill-13" fill="#E51753"></path>
                <path d="M6.61070294,34.125216 L7.46053942,34.125216 L7.46053942,34.0645883 C7.6659419,33.8626415 8.03071586,33.7623223 8.55269003,33.7623223 C9.08856035,33.7623223 9.54539631,33.9524926 9.92493493,34.3337053 L10.066502,34.4750245 L10.2137143,34.3337053 C10.5932529,33.9524926 11.0500889,33.7623223 11.5859592,33.7623223 C12.1261721,33.7623223 12.5847451,33.9524926 12.9599411,34.3337053 C13.321241,34.6970351 13.5101418,35.1358223 13.5283805,35.6522479 L13.5283805,40.4954819 L12.6785441,40.4954819 L12.6785441,35.5113649 C12.6694247,35.3273011 12.5639008,35.1358223 12.3628409,34.9391096 C12.1487533,34.7240777 11.8895033,34.6163436 11.5859592,34.6163436 C11.2867577,34.6163436 11.0296789,34.7240777 10.8129858,34.9391096 C10.5962927,35.1541415 10.487729,35.4232585 10.487729,35.7464606 L10.487729,40.4954819 L9.64397213,40.4954819 L9.64397213,35.5113649 L9.63789256,35.5113649 C9.62920747,35.3273011 9.5262891,35.1358223 9.33000597,34.9391096 C9.11070294,34.7240777 8.85189153,34.6163436 8.55269003,34.6163436 C8.24914598,34.6163436 7.99163294,34.7240777 7.78188791,34.9391096 C7.58994733,35.1227372 7.48312067,35.3473649 7.46053942,35.611684 L7.46053942,40.4954819 L6.61070294,40.4954819 L6.61070294,34.125216 Z" id="Fill-15" fill="#E51753"></path>
                <path d="M18.2946734,34.125216 L19.1449442,34.125216 L19.1449442,34.0645883 C19.3507809,33.8626415 19.7146864,33.7623223 20.2366605,33.7623223 C20.7725308,33.7623223 21.2302353,33.9524926 21.6097739,34.3337053 L21.7504725,34.4750245 L21.8976848,34.3337053 C22.2772234,33.9524926 22.7349279,33.7623223 23.2707982,33.7623223 C23.8110111,33.7623223 24.2687156,33.9524926 24.6439116,34.3337053 C25.0052115,34.6970351 25.1949809,35.1358223 25.2127853,35.6522479 L25.2127853,40.4954819 L24.3625146,40.4954819 L24.3625146,35.5113649 C24.3533952,35.3273011 24.2487398,35.1358223 24.0476799,34.9391096 C23.8335923,34.7240777 23.5743423,34.6163436 23.2707982,34.6163436 C22.9715967,34.6163436 22.7140837,34.7240777 22.4969563,34.9391096 C22.2811317,35.1541415 22.1721338,35.4232585 22.1721338,35.7464606 L22.1721338,40.4954819 L21.3283769,40.4954819 L21.3283769,35.5113649 L21.3218631,35.5113649 C21.3127437,35.3273011 21.2102596,35.1358223 21.0139765,34.9391096 C20.7946734,34.7240777 20.535862,34.6163436 20.2366605,34.6163436 C19.9331165,34.6163436 19.6764719,34.7240777 19.4667269,34.9391096 C19.2747863,35.1227372 19.1675254,35.3473649 19.1449442,35.611684 L19.1449442,40.4954819 L18.2946734,40.4954819 L18.2946734,34.125216 Z" id="Fill-17" fill="#E51753"></path>
                <g id="Group-21" transform="translate(29.529321, 33.255449)">
                    <mask id="mask-6" fill="white">
                        <use xlink:href="#path-5"></use>
                    </mask>
                    <g id="Clip-20"></g>
                    <path d="M3.57752061,0.31818617 C4.55546223,0.31818617 5.38792852,0.664941489 6.07578799,1.35757979 C6.7632132,2.05109043 7.10714293,2.88810106 7.10714293,3.87035638 C7.10714293,4.84781383 6.7632132,5.68307979 6.07578799,6.37571809 C5.38792852,7.06922872 4.55546223,7.4151117 3.57752061,7.4151117 C2.60392154,7.4151117 1.77232377,7.06922872 1.08316153,6.37571809 C0.392262284,5.68307979 0.047898295,4.84781383 0.047898295,3.87035638 C0.047898295,2.88810106 0.392262284,2.05109043 1.08316153,1.35757979 C1.77232377,0.664941489 2.60392154,0.31818617 3.57752061,0.31818617 M1.7019745,1.98610106 C1.18434288,2.5068883 0.925527073,3.13453723 0.925527073,3.87035638 C0.925527073,4.60530319 1.18434288,5.23164362 1.7019745,5.74676064 C2.22004038,6.26231383 2.84536717,6.5205266 3.57752061,6.5205266 C4.30967406,6.5205266 4.9345666,6.26231383 5.45263247,5.74676064 C5.97069835,5.23164362 6.22951416,4.60530319 6.22951416,3.87035638 C6.22951416,3.13453723 5.97069835,2.5068883 5.45263247,1.98610106 C4.9345666,1.46618617 4.30967406,1.20579255 3.57752061,1.20579255 C2.84536717,1.20579255 2.22004038,1.46618617 1.7019745,1.98610106" id="Fill-19" fill="#E51753" mask="url(#mask-6)"></path>
                </g>
                <path d="M41.0005931,30.2976479 L41.8512981,30.2976479 L41.8512981,34.6698181 C42.6055986,33.939233 43.4697654,33.5737223 44.4429303,33.5737223 C45.4208719,33.5737223 46.2533382,33.9204777 46.9411976,34.613116 C47.6286228,35.3061904 47.9725526,36.1432011 47.9725526,37.1254564 C47.9725526,38.10335 47.6286228,38.938616 46.9411976,39.6308181 C46.2533382,40.3243287 45.4208719,40.6702117 44.4429303,40.6702117 C43.4697654,40.6702117 42.6055986,40.3025202 41.8512981,39.5671372 L41.8512981,40.4957436 L41.0005931,40.4957436 L41.0005931,30.2976479 Z M41.8512981,36.5536372 L41.8512981,37.6902968 C41.9494397,38.1792436 42.1882798,38.6162862 42.5678184,39.002733 C43.0858843,39.51785 43.7107768,39.7751904 44.4429303,39.7751904 C45.1750837,39.7751904 45.8004105,39.51785 46.3184764,39.002733 C46.836108,38.4863074 47.095358,37.8608394 47.095358,37.1254564 C47.095358,36.3900734 46.836108,35.7619883 46.3184764,35.2420734 C45.8004105,34.7217223 45.1750837,34.4617649 44.4429303,34.4617649 C43.7107768,34.4617649 43.0858843,34.7217223 42.5678184,35.2420734 C42.1882798,35.6232862 41.9494397,36.0603287 41.8512981,36.5536372 L41.8512981,36.5536372 Z" id="Fill-22" fill="#E51753"></path>
                <path d="M53.6022307,32.1713915 C53.7398894,32.3074766 53.8102387,32.4723489 53.8102387,32.6660085 C53.8102387,32.8627213 53.7398894,33.0297745 53.6022307,33.1667319 C53.4637034,33.3032532 53.2982524,33.3717319 53.1058776,33.3717319 C52.9143712,33.3717319 52.7493544,33.3032532 52.6108272,33.1667319 C52.4718657,33.0297745 52.4036877,32.8627213 52.4036877,32.6660085 C52.4036877,32.4723489 52.4718657,32.3074766 52.6108272,32.1713915 C52.7493544,32.0339979 52.9143712,31.9655191 53.1058776,31.9655191 C53.2982524,31.9655191 53.4637034,32.0339979 53.6022307,32.1713915 L53.6022307,32.1713915 Z M52.6777024,40.4957 L53.5292759,40.4957 L53.5292759,34.1249979 L52.6777024,34.1249979 L52.6777024,40.4957 Z" id="Fill-24" fill="#E51753"></path>
                <mask id="mask-8" fill="white">
                    <use xlink:href="#path-7"></use>
                </mask>
                <g id="Clip-27"></g>
                <polygon id="Fill-26" fill="#E51753" mask="url(#mask-8)" points="58.4089961 40.4958745 59.2583983 40.4958745 59.2583983 30.2973426 58.4089961 30.2973426"></polygon>
                <path d="M65.0573924,32.1713915 C65.1954854,32.3074766 65.2645319,32.4723489 65.2645319,32.6660085 C65.2645319,32.8627213 65.1954854,33.0297745 65.0573924,33.1667319 C64.9192994,33.3032532 64.7534141,33.3717319 64.5614735,33.3717319 C64.3695329,33.3717319 64.2045161,33.3032532 64.0659889,33.1667319 C63.9274616,33.0297745 63.8575466,32.8627213 63.8575466,32.6660085 C63.8575466,32.4723489 63.9274616,32.3074766 64.0659889,32.1713915 C64.2045161,32.0339979 64.3695329,31.9655191 64.5614735,31.9655191 C64.7534141,31.9655191 64.9192994,32.0339979 65.0573924,32.1713915 L65.0573924,32.1713915 Z M64.1328641,40.4957 L64.9827006,40.4957 L64.9827006,34.1249979 L64.1328641,34.1249979 L64.1328641,40.4957 Z" id="Fill-28" fill="#E51753" mask="url(#mask-8)"></path>
                <path d="M71.3430991,39.2042436 C71.7630234,39.5854564 72.3119214,39.7756266 72.9906615,39.7756266 C73.7228149,39.7756266 74.3481417,39.51785 74.8657733,39.0022968 C74.9335171,38.9346904 75.0177625,38.838733 75.1202466,38.7126798 L75.9844135,39.0223606 C75.7968154,39.2866798 75.6339699,39.4886266 75.4958769,39.6277649 C74.8036749,40.3230202 73.9686031,40.6702117 72.9906615,40.6702117 C72.0170624,40.6702117 71.1867674,40.3247649 70.4958681,39.6312543 C69.8062717,38.938616 69.4610392,38.100733 69.4610392,37.1189138 C69.4610392,36.1410202 69.8062717,35.3061904 70.4958681,34.6126798 C71.1867674,33.9200415 72.0170624,33.5732862 72.9906615,33.5732862 C73.8257333,33.5732862 74.5574525,33.8245202 75.1875561,34.3269883 C75.2900402,34.4120415 75.3925243,34.5062543 75.4958769,34.6096266 C75.5319201,34.6497543 75.5979268,34.7243394 75.6965026,34.8316372 L75.1810423,35.3493713 L71.3430991,39.2042436 Z M74.444112,34.8852862 C74.077601,34.603084 73.5938413,34.4613287 72.9906615,34.4613287 C72.2628506,34.4613287 71.6405636,34.7204138 71.1220634,35.238584 C70.6039976,35.7558819 70.3451818,36.3830947 70.3451818,37.1189138 C70.3451818,37.7238819 70.4858803,38.2106479 70.7668431,38.5783394 L74.444112,34.8852862 Z" id="Fill-29" fill="#E51753" mask="url(#mask-8)"></path>
                <path d="M80.3491945,34.125216 L81.1994652,34.125216 L81.1994652,34.9055245 C81.8156726,34.3140777 82.4496845,34.002216 83.1015009,33.9708117 L83.1015009,34.8784819 C82.6946042,34.8968011 82.3202766,35.0804287 81.9767811,35.4298011 C81.4760855,35.9235457 81.2172696,36.5176096 81.1994652,37.2128649 L81.1994652,40.4954819 L80.3491945,40.4954819 L80.3491945,34.125216 Z" id="Fill-30" fill="#E51753" mask="url(#mask-8)"></path>
            </g>
        </g>
    </g>
</svg>