
        <svg
          xmlns:dc="http://purl.org/dc/elements/1.1/"
          xmlns:cc="http://creativecommons.org/ns#"
          xmlns:rdf="http://www.w3.org/1999/02/22-rdf-syntax-ns#"
          xmlns:svg="http://www.w3.org/2000/svg"
          xmlns="http://www.w3.org/2000/svg"
          xmlns:sodipodi="http://sodipodi.sourceforge.net/DTD/sodipodi-0.dtd"
          xmlns:inkscape="http://www.inkscape.org/namespaces/inkscape"
          width="110"
          height="45"
          viewBox="0 0 110 45"
          version="1.1"
          id="svg24"
          sodipodi:docname="logo-simple.svg"
          inkscape:version="0.92.5 (2060ec1f9f, 2020-04-08)"
        >
          <metadata id="metadata38">
            <rdf:rdf>
              <cc:work rdf:about="">
                <dc:format>image/svg+xml</dc:format>
                <dc:type rdf:resource="http://purl.org/dc/dcmitype/StillImage"></dc:type>
                <dc:title></dc:title>
              </cc:work>
            </rdf:rdf>
          </metadata>
          <defs id="defs36">
            <defs id="defs21">
              <filter
                id="Adobe_OpacityMaskFilter_1_"
                filterUnits="userSpaceOnUse"
                x="0.69999999"
                y="0.60000002"
                width="17.4"
                height="31.1"
              >
                <feColorMatrix
                  type="matrix"
                  values="1 0 0 0 0  0 1 0 0 0  0 0 1 0 0  0 0 0 1 0"
                  id="feColorMatrix18"
                ></feColorMatrix>
              </filter>
            </defs>
            <mask
              maskUnits="userSpaceOnUse"
              x="0.7"
              y="0.6"
              width="17.4"
              height="31.1"
              id="mask-4_1_"
            >
              <g class="st3" id="g24">
                <polygon
                  id="path-3_1_"
                  class="st1"
                  points="18.1,31.7 0.7,31.7 0.7,0.6 18.1,0.6 "
                ></polygon>
              </g>
            </mask>
            <defs id="defs6">
              <filter
                id="Adobe_OpacityMaskFilter"
                filterUnits="userSpaceOnUse"
                x="0.5"
                y="0.60000002"
                width="19.5"
                height="21.200001"
              >
                <feColorMatrix
                  type="matrix"
                  values="1 0 0 0 0  0 1 0 0 0  0 0 1 0 0  0 0 0 1 0"
                  id="feColorMatrix3"
                ></feColorMatrix>
              </filter>
            </defs>
            <mask
              maskUnits="userSpaceOnUse"
              x="0.5"
              y="0.6"
              width="19.5"
              height="21.2"
              id="mask-2_1_"
            >
              <g class="st0" id="g9">
                <polygon
                  id="path-1_1_"
                  class="st1"
                  points="20,21.8 0.5,21.8 0.5,0.6 20,0.6 "
                ></polygon>
              </g>
            </mask>
          </defs>
          <sodipodi:namedview
            pagecolor="#ffffff"
            bordercolor="#666666"
            borderopacity="1"
            objecttolerance="10"
            gridtolerance="10"
            guidetolerance="10"
            inkscape:pageopacity="0"
            inkscape:pageshadow="2"
            inkscape:window-width="1080"
            inkscape:window-height="1883"
            id="namedview34"
            showgrid="false"
            inkscape:zoom="4.0909091"
            inkscape:cx="44.337469"
            inkscape:cy="10.418351"
            inkscape:window-x="0"
            inkscape:window-y="0"
            inkscape:window-maximized="1"
            inkscape:current-layer="svg24"
          ></sodipodi:namedview>
          <g
            id="g936"
            transform="matrix(1.1435215,0,0,1.1435215,-0.05740862,-0.05740862)"
          >
            <path
              inkscape:connector-curvature="0"
              d="m 6.1,21.945528 c 1.3,1.1 2.9,1.7 4.9,1.7 2.2,0 4.1,-0.8 5.6,-2.3 0.2,-0.2 0.5,-0.5 0.8,-0.9 l 2.6,0.9 c -0.6,0.8 -1,1.4 -1.5,1.8 -2.1,2.1 -4.6,3.1 -7.5,3.1 -2.9,0 -5.4,-1 -7.5,-3.1 -2.1,-2.1 -3.1,-4.6 -3.1,-7.5 0,-2.9 1,-5.4 3.1,-7.5 2.1,-2.1 4.5,-3.1 7.5,-3.1 2.5,0 4.7,0.8 6.6,2.3 0.3,0.3 0.6,0.5 0.9,0.8 0.1,0.1 0.3,0.3 0.6,0.7 l -1.5,1.5 z m 9.3,-12.9 c -1.1,-0.8 -2.5,-1.3 -4.3,-1.3 -2.2,0.1 -4.1,0.8 -5.6,2.4 -1.6,1.5 -2.3,3.4 -2.3,5.6 0,1.8 0.4,3.3 1.3,4.4 z"
              class="st2"
              id="Fill-1"
              stroke-dasharray="124.55856323242188"
              style="stroke-dashoffset: 0px;"
            ></path>
            <path
              id="Fill-4"
              class="st1"
              d="m 27.3,11.4 v 14.4 h -2.5 v -19 h 2.5 v 0.5 c 1.1,-1.1 2.7,-1.6 4.8,-1.6 2.3,0 4.1,0.7 5.5,2.1 1.4,1.4 2.2,3.2 2.2,5.4 V 25.8 H 37.3 V 13.4 c 0,-1.4 -0.5,-2.6 -1.5,-3.6 -1,-1 -2.2,-1.5 -3.6,-1.5 -1.4,0 -2.6,0.5 -3.6,1.5 -0.6,0.5 -1,1 -1.3,1.6"
              inkscape:connector-curvature="0"
              stroke-dasharray="97.74384307861328"
              style="stroke-dashoffset: 0px;"
            ></path>
            <path
              id="Fill-6"
              class="st1"
              d="m 43.9,27.5 c 1.5,-0.2 2.2,-0.9 2.2,-2.1 V 6.8 h 2.5 v 18.6 c 0,2.9 -1.6,4.4 -4.8,4.7 V 27.5 Z M 48.8,1 c 0.4,0.4 0.6,0.9 0.6,1.5 0,0.6 -0.2,1.1 -0.6,1.5 C 48.4,4.4 47.9,4.6 47.3,4.6 46.7,4.6 46.2,4.4 45.8,4 45.4,3.6 45.2,3.1 45.2,2.5 c 0,-0.6 0.2,-1.1 0.6,-1.5 0.4,-0.4 0.9,-0.6 1.5,-0.6 0.6,0 1.1,0.2 1.5,0.6 z"
              inkscape:connector-curvature="0"
              stroke-dasharray="66.63949584960938"
              style="stroke-dashoffset: 0px;"
            ></path>
            <path
              id="Fill-8"
              class="st1"
              d="m 64.8,5.2 c 2.9,0 5.4,1 7.5,3.1 2.1,2.1 3.1,4.6 3.1,7.5 0,2.9 -1,5.4 -3.1,7.5 -2.1,2.1 -4.5,3.1 -7.5,3.1 -2.9,0 -5.4,-1 -7.5,-3.1 -2.1,-2.1 -3.1,-4.6 -3.1,-7.5 0,-2.9 1,-5.4 3.1,-7.5 2.1,-2.1 4.6,-3.1 7.5,-3.1 m -5.6,4.9 c -1.5,1.6 -2.3,3.4 -2.3,5.6 0,2.2 0.8,4.1 2.3,5.6 1.5,1.5 3.4,2.3 5.6,2.3 2.2,0 4.1,-0.8 5.6,-2.3 1.5,-1.5 2.3,-3.4 2.3,-5.6 0,-2.2 -0.8,-4.1 -2.3,-5.6 C 68.9,8.5 67,7.8 64.8,7.8 c -2.2,0 -4.1,0.8 -5.6,2.3"
              inkscape:connector-curvature="0"
              stroke-dasharray="116.51707458496094"
              style="stroke-dashoffset: 0px;"
            ></path>
            <path
              id="Fill-10"
              d="M 3.3,31.7 H 0.7 L 8.2,15.9 1,0.6 H 3.8 L 9.5,13 15.3,0.6 h 2.8 z"
              transform="translate(77.678636,6.162549)"
              inkscape:connector-curvature="0"
              stroke-dasharray="104.37791442871094"
              style="stroke-dashoffset: 0px;"
            ></path>
          </g>
        </svg>